<?xml version="1.0" standalone="no"?>
<!DOCTYPE svg PUBLIC "-//W3C//DTD SVG 20010904//EN"
 "http://www.w3.org/TR/2001/REC-SVG-20010904/DTD/svg10.dtd">
<svg version="1.0" xmlns="http://www.w3.org/2000/svg"
 width="700.000000pt" height="700.000000pt" viewBox="0 0 700.000000 700.000000"
 preserveAspectRatio="xMidYMid meet">
<metadata>
Created by potrace 1.11, written by Peter Selinger 2001-2013
</metadata>
<g transform="translate(0.000000,700.000000) scale(0.100000,-0.100000)"
fill="#000000" stroke="none">
<path d="M0 3500 l0 -3500 3500 0 3500 0 0 3500 0 3500 -3500 0 -3500 0 0
-3500z m3881 2916 c340 -48 613 -132 924 -286 303 -149 528 -312 771 -554 242
-243 405 -468 554 -771 158 -320 246 -610 291 -965 18 -138 18 -542 0 -680
-45 -355 -133 -645 -291 -965 -149 -303 -312 -528 -554 -771 -243 -242 -468
-405 -771 -554 -259 -128 -476 -203 -740 -254 -207 -41 -318 -51 -565 -51
-488 0 -868 89 -1305 305 -303 149 -528 312 -771 554 -242 243 -405 468 -554
771 -158 320 -246 610 -291 965 -18 138 -18 542 0 680 45 355 133 645 291 965
149 303 312 528 554 771 162 161 280 258 462 380 143 94 435 243 587 299 220
80 478 142 687 164 58 6 121 13 140 15 75 9 480 -4 581 -18z"/>
<path d="M2540 4835 l-1135 -1135 1285 -1285 c706 -706 1286 -1282 1288 -1280
2 2 226 801 497 1777 l493 1773 -641 643 c-353 353 -644 642 -647 642 -3 0
-516 -511 -1140 -1135z"/>
</g>
</svg>
